<svg width="18" height="18" viewBox="0 0 18 18" fill="none" xmlns="http://www.w3.org/2000/svg">
<g clip-path="url(#clip0_1_17953)">
<path d="M12.0628 7.38141L5.6651 3.69208" stroke="white" stroke-width="1.59942" stroke-linecap="round" stroke-linejoin="round"/>
<path d="M15.2613 12.0731V6.38625C15.261 6.13694 15.1952 5.89207 15.0705 5.67622C14.9457 5.46038 14.7664 5.28113 14.5505 5.15648L9.57448 2.31306C9.35835 2.18828 9.11318 2.12259 8.86362 2.12259C8.61406 2.12259 8.3689 2.18828 8.15277 2.31306L3.1768 5.15648C2.96088 5.28113 2.78155 5.46038 2.65678 5.67622C2.53201 5.89207 2.4662 6.13694 2.46594 6.38625V12.0731C2.4662 12.3224 2.53201 12.5673 2.65678 12.7831C2.78155 12.999 2.96088 13.1782 3.1768 13.3029L8.15277 16.1463C8.3689 16.271 8.61406 16.3367 8.86362 16.3367C9.11318 16.3367 9.35835 16.271 9.57448 16.1463L14.5505 13.3029C14.7664 13.1782 14.9457 12.999 15.0705 12.7831C15.1952 12.5673 15.261 12.3224 15.2613 12.0731Z" stroke="white" stroke-width="1.59942" stroke-linecap="round" stroke-linejoin="round"/>
<path d="M2.65814 5.6469L8.86389 9.23671L15.0696 5.6469" stroke="white" stroke-width="1.59942" stroke-linecap="round" stroke-linejoin="round"/>
<path d="M8.86353 16.3952V9.22975" stroke="white" stroke-width="1.59942" stroke-linecap="round" stroke-linejoin="round"/>
</g>
<defs>
<clipPath id="clip0_1_17953">
<rect width="17.0605" height="17.0605" fill="white" transform="translate(0.333496 0.69931)"/>
</clipPath>
</defs>
</svg>
